<svg width="136" height="24" viewBox="0 0 136 24" fill="none" xmlns="http://www.w3.org/2000/svg">
<path d="M31.5564 5.68616H20.1328L19.7234 5.98922V15.3668H22.8662V11.8369L23.1543 11.5735H31.5564C33.6811 11.5735 34.6587 11.0444 34.6587 9.68808V7.53186C34.6587 6.21279 33.6811 5.68616 31.5564 5.68616ZM31.5564 9.15151C31.5564 9.79242 31.1067 9.89675 30.086 9.89675H23.2082L22.8796 9.63343V7.64613L23.1678 7.38281H30.1076C31.0878 7.38281 31.5779 7.4946 31.5779 8.12805V9.14406L31.5564 9.15151Z" fill="white"/>
<path d="M40.4647 7.45735L43.2007 11.1488L43.0364 11.4891H36.9934L35.4423 13.2578H44.426L45.0777 13.5981L46.4673 15.3668H50.1001L42.1397 5.57439" fill="white"/>
<path d="M76.5184 13.4838V10.8482L76.8469 10.5849H82.9304V8.92796H73.2949V15.3668H87.5031V13.7099H76.8874" fill="white"/>
<path d="M87.6269 5.68866H73.2949V7.4971H87.6269V5.68866Z" fill="white"/>
<g filter="url(#filter0_d_2_15)">
<path d="M57.3307 7.4201H68.8863C68.722 6.06377 67.7822 5.68121 65.4958 5.68121H57.2069C54.5947 5.68121 53.776 6.13332 53.776 7.97903V13.1063C53.776 14.9147 54.5839 15.4041 57.2069 15.4041H65.4877C67.8145 15.4041 68.7193 14.9892 68.7947 13.5956H57.3226L56.9941 13.2951V7.64616" fill="white"/>
</g>
<path d="M11.9649 9.45209H3.59512L3.35006 9.18877V7.53186L3.59512 7.34307H14.9056L15.0672 7.00523C14.7009 6.10101 13.6803 5.6489 11.8356 5.6489H3.96136C1.34918 5.6489 0.533209 6.10101 0.533209 7.94671V9.03973C0.533209 10.8457 1.3411 11.3375 3.96136 11.3375H12.3338L12.5789 11.5636V13.3025L12.3742 13.5658H0.288148C0.288148 13.5658 0 13.7173 0 13.7546C0.204666 15.0364 1.14451 15.3742 3.39045 15.3742H11.9649C14.5771 15.3742 15.4361 14.9221 15.4361 13.0764V11.7499C15.4361 9.94395 14.5771 9.45209 11.9649 9.45209Z" fill="white"/>
<path d="M96.6508 5.6489H91.9139L91.6688 6.10101L96.8959 9.64088C97.8761 9.11425 98.9776 8.58762 100.127 8.0585" fill="white"/>
<path d="M100.898 12.279L105.511 15.3668H110.248L110.452 14.952L103.593 10.3191C102.694 10.96 101.754 11.6009 100.901 12.279" fill="white"/>
<path d="M95.9561 15.3668H91.6689L91.3026 14.8402C94.2003 12.2393 107.191 1.17748 135.4 0C135.4 0 111.758 0.745237 95.9561 15.3668" fill="#B2B0B2"/>
<defs>
<filter id="filter0_d_2_15" x="49.776" y="5.68121" width="23.1102" height="17.7229" filterUnits="userSpaceOnUse" color-interpolation-filters="sRGB">
<feFlood flood-opacity="0" result="BackgroundImageFix"/>
<feColorMatrix in="SourceAlpha" type="matrix" values="0 0 0 0 0 0 0 0 0 0 0 0 0 0 0 0 0 0 127 0" result="hardAlpha"/>
<feOffset dy="4"/>
<feGaussianBlur stdDeviation="2"/>
<feComposite in2="hardAlpha" operator="out"/>
<feColorMatrix type="matrix" values="0 0 0 0 0 0 0 0 0 0 0 0 0 0 0 0 0 0 0.25 0"/>
<feBlend mode="normal" in2="BackgroundImageFix" result="effect1_dropShadow_2_15"/>
<feBlend mode="normal" in="SourceGraphic" in2="effect1_dropShadow_2_15" result="shape"/>
</filter>
</defs>
</svg>
